<svg xmlns="http://www.w3.org/2000/svg" width="16.529" height="16.529" viewBox="0 0 16.529 16.529"><defs><style>.a,.b{fill:#fff;}.b{fill-rule:evenodd;}</style></defs><g transform="translate(98 -1961)"><path class="a" d="M11.118,12.26a.75.75,0,0,1-.75-.75A2.58,2.58,0,0,1,11.81,9.156,2.322,2.322,0,0,0,12.048,9,1.316,1.316,0,1,0,9.875,7.632a.75.75,0,1,1-1.416-.495,2.816,2.816,0,1,1,4.648,2.922,2.726,2.726,0,0,1-.507.371c-.467.289-.732.482-.732,1.078A.75.75,0,0,1,11.118,12.26Z" transform="translate(-100.838 1958.673)"/><path class="b" d="M11.689,17.377A.689.689,0,1,0,11,16.689.689.689,0,0,0,11.689,17.377Z" transform="translate(-101.424 1956.784)"/><path class="a" d="M10.264,17.029A6.764,6.764,0,1,0,3.5,10.264a6.772,6.772,0,0,0,6.764,6.764m0,1.5a8.264,8.264,0,1,1,8.264-8.264A8.264,8.264,0,0,1,10.264,18.529Z" transform="translate(-100 1959)"/></g></svg>